<svg xmlns="http://www.w3.org/2000/svg" viewBox="0 0 47.14 46.99"><defs><style>.cls-1{fill:#fff;fill-rule:evenodd;}</style></defs><g id="Слой_2" data-name="Слой 2"><g id="Слой_1-2" data-name="Слой 1"><path class="cls-1" d="M26.35,15A10.28,10.28,0,1,1,15.9,25.28,10.37,10.37,0,0,1,26.35,15ZM12.05,27.54h0a.53.53,0,0,1,.54.53v5.77h6.32a11.18,11.18,0,0,1-4-8.56,11.44,11.44,0,0,1,22.87,0,11.18,11.18,0,0,1-4,8.56h3.93a1,1,0,0,0,1-1V17.9a1,1,0,0,0-1-1h-3a1,1,0,0,1-1-.77l-.69-3c-.14-.64-.51-1.4-1.27-1.4H20.28c-.76,0-1.16.71-1.27,1.37L18.49,16a1,1,0,0,1-1,.82H16.46a1,1,0,0,1-1-1V14.51a.35.35,0,0,0-.35-.35H11.63a.35.35,0,0,0-.35.35v1.36a1,1,0,0,1-1,1H9.93a1,1,0,0,0-1,1V32.8a1,1,0,0,0,1,1h1.59V28.07a.53.53,0,0,1,.53-.53Zm18.38,4a.45.45,0,0,0-.28.09,7.39,7.39,0,1,1,3.36-5.16h0v0a.49.49,0,0,0,1,.11h0v0h0a8.92,8.92,0,0,0,.08-1.16,8.31,8.31,0,1,0-3.94,7.08.5.5,0,0,0-.21-.95ZM12,19.09A2.41,2.41,0,1,1,9.56,21.5,2.41,2.41,0,0,1,12,19.09Zm-1.68-3.22H9.93a2,2,0,0,0-2,2V32.8a2,2,0,0,0,2,2H20.08a11.25,11.25,0,0,0,12.36,0h5.27a2,2,0,0,0,2-2V17.9a2,2,0,0,0-2-2h-3l-.68-3a2.44,2.44,0,0,0-2.24-2.17H20.28A2.4,2.4,0,0,0,18,12.92l-.51,2.95H16.46V14.51a1.34,1.34,0,0,0-1.34-1.34H11.63a1.34,1.34,0,0,0-1.34,1.34v1.36ZM12,20.07a1.43,1.43,0,1,1-1.42,1.43A1.43,1.43,0,0,1,12,20.07Z"/><path class="cls-1" d="M23.5,0a23.51,23.51,0,0,1,23,18.94H45.27a22.11,22.11,0,1,0,.07,9.11h0a.59.59,0,0,1,.57-.45c.29,0,.68.37.61.58A23.5,23.5,0,1,1,23.5,0Z"/><path class="cls-1" d="M46.51,22.54a.63.63,0,1,0-.62-.63A.63.63,0,0,0,46.51,22.54Z"/></g></g></svg>