<svg xmlns="http://www.w3.org/2000/svg" viewBox="0 0 47.14 46.99"><defs><style>.cls-1{fill:#fff;fill-rule:evenodd;}</style></defs><g id="Слой_2" data-name="Слой 2"><g id="Слой_1-2" data-name="Слой 1"><path class="cls-1" d="M34.08,28.79a5,5,0,0,1,2,1.6,8.18,8.18,0,0,1,.48.72,7.39,7.39,0,0,1,1,4.2H34.08V28.79Zm4.62,5.54a8,8,0,0,0-1.26-4c-.89-1.38-.85-.66-.85-1.84,0-2.1.28-4.78-2.06-6a4.64,4.64,0,0,0-2.34-.34H29.5a11.15,11.15,0,0,0,.69-1.43,12.78,12.78,0,0,0,.34-4.29h4.12c.36,0,.51-.28.51-.63s-.93-.93-1.27-1.13a11,11,0,0,0-1.6-.85L31,13.29c-.25-.11-.17-.12-.24-.39a8.23,8.23,0,0,0-1.55-3.31,7,7,0,0,0-4.92-2.4,6.8,6.8,0,0,0-4.24,1.19,6.26,6.26,0,0,0-1.79,1.8c-.1.16-.12.2-.21.36a4.1,4.1,0,0,0-.23.4,16.71,16.71,0,0,0-.75,2.23c-.07.25-.07.2-.34.29a13.59,13.59,0,0,0-2.43,1.17l-1.05.72a.48.48,0,0,0-.21.41c0,.35.15.63.51.63h4.06c0,1.86-.19,3.71.82,5.35a1.36,1.36,0,0,1,.21.37c-1.24,0-4.14-.14-5.11.2-2.74,1-2.44,4.54-2.44,6.82,0,1.16-.14.52-.82,1.87a7.11,7.11,0,0,0-.83,3.43v1.5a.51.51,0,0,0,.51.52H21.79a.57.57,0,0,0,0-1.14H18.3V27.88c0-.13,0-.17.18-.17,2.36,0,1.63-.17,2.47.61a4.8,4.8,0,0,0,2.78,1.16,4.67,4.67,0,0,0,2.72-.6c2.15-1.26.15-1.17,3.23-1.17.13,0,.17,0,.17.17v7.43H26.7a.57.57,0,0,0,0,1.14H38.19c.33,0,.46-.22.51-.56V34.33ZM31,27.19c0-.62.79-.37,1.28-.25.31.08.61.1.61.48v7.89H31V27.19Zm-15.71.23c0-.37.27-.39.56-.46s1.32-.42,1.32.23v8.12H15.28V27.42Zm-4.69,7.43a6.65,6.65,0,0,1,1.5-4.44,6.74,6.74,0,0,1,.89-.88c.36-.29.73-.49,1.1-.74v6.52H10.59v-.46ZM21.68,24.56a6.75,6.75,0,0,0,2.4.52l1.32-.16a6.52,6.52,0,0,0,1.13-.36c0,.34.13.82.18,1.19.16,1.13.55,1.37-.94,2.17a3.66,3.66,0,0,1-4-.4c-.2-.17-.33-.36-.53-.5,0-.64.35-1.88.4-2.46ZM27.62,24c.51-.34.79-.74,1.08-.74h3.95c2.92,0,2.8,2.67,2.8,4.91a4.44,4.44,0,0,1-.67-.36,3.63,3.63,0,0,0-.7-.32A1.64,1.64,0,0,0,33.24,26a6.7,6.7,0,0,0-1.91-.44,1.55,1.55,0,0,0-1.37,1H28c0-.2-.36-2.48-.4-2.57Zm-7.43,2.57h-2a1.55,1.55,0,0,0-1.37-1,4.46,4.46,0,0,0-2.14.6c-.59.45-.51,1-.64,1.26s-.46.27-.6.36l-1.14.75c0-1.73-.22-4,1.2-4.91a2.75,2.75,0,0,1,1.66-.4h4.4c.14,0,.6.51,1,.74a24,24,0,0,0-.4,2.57Zm-1.43-8.23V16.39H29.39A10.93,10.93,0,0,1,29,20.6a5.48,5.48,0,0,1-1.06,1.62A5.55,5.55,0,0,1,24,23.88a5.4,5.4,0,0,1-5.26-5.55Zm1.94-4.51h6.8a11.29,11.29,0,0,1,2.79.47,11,11,0,0,1,2.3,1H15.68a4,4,0,0,1,1.06-.54,11.67,11.67,0,0,1,4-.89Zm8.8-1c-.43,0-.84-.14-1.26-.17s-.87-.06-1.42-.06H21a11.8,11.8,0,0,0-2.63.34,6,6,0,0,1,1.82-3.21,6.09,6.09,0,0,1,3.67-1.42A6.47,6.47,0,0,1,26,8.72,5.43,5.43,0,0,1,28.78,11,5.58,5.58,0,0,1,29.5,12.85Z"/><path class="cls-1" d="M23,19.65c0,.84,1.1.74,1.54.74.77,0,1-.74.47-1.1-.2-.14-.33-.1-.64-.1,0-.36.4-1.08.4-1.31a.59.59,0,0,0-1.13-.27A14.54,14.54,0,0,0,23,19.65Z"/><path class="cls-1" d="M23.68,35.88c0,.69,1.2.81,1.2,0S23.68,35.16,23.68,35.88Z"/><path class="cls-1" d="M23.5,0a23.51,23.51,0,0,1,23,18.94H45.27a22.11,22.11,0,1,0,.07,9.11h0a.58.58,0,0,1,.57-.45c.29,0,.68.37.61.58A23.5,23.5,0,1,1,23.5,0Z"/><path class="cls-1" d="M46.51,22.54a.63.63,0,1,0-.62-.63A.63.63,0,0,0,46.51,22.54Z"/></g></g></svg>