<svg xmlns="http://www.w3.org/2000/svg" viewBox="0 0 47.14 46.99"><defs><style>.cls-1{fill:#fff;fill-rule:evenodd;}</style></defs><g id="Слой_2" data-name="Слой 2"><g id="Слой_1-2" data-name="Слой 1"><path class="cls-1" d="M30.26,14.49A2.28,2.28,0,0,0,31,16.33a2.32,2.32,0,0,0,1.94.69,2.59,2.59,0,0,0,1.88-1.34,2.49,2.49,0,0,0,0-2A2.33,2.33,0,0,0,34.3,13a2.29,2.29,0,0,0-2.6-.5,2.27,2.27,0,0,0-1.44,2Zm1.11.28a1.22,1.22,0,0,1,.26-.84,1.23,1.23,0,0,1,2.24.66,1.25,1.25,0,0,1-2.08,1A1.56,1.56,0,0,1,31.37,14.77Z"/><path class="cls-1" d="M33.12,8.67h-1a6.08,6.08,0,0,0-4.95,3.41,6,6,0,0,0-.56,2.24A5.47,5.47,0,0,0,27.25,17c.05.11.1.23.16.34a27.65,27.65,0,0,0,3.37,5.08c.28.36.56.73.87,1.08.13.16.67.75.87.79a.74.74,0,0,0,.59-.24c.1-.1.19-.23.28-.34a4.72,4.72,0,0,1,.41-.48c1.52-1.64,4.82-6.2,4.82-8.44a6,6,0,0,0-3.41-5.54,6.12,6.12,0,0,0-2.09-.56ZM33,22.4a.35.35,0,0,1-.34.25h-.11a.34.34,0,0,1-.34-.26,1.06,1.06,0,0,0-.19-.24c-.44-.56-.88-1.11-1.31-1.68S29.9,19.3,29.5,18.7A15.33,15.33,0,0,1,28.07,16a4.47,4.47,0,0,1,1.31-5,4.82,4.82,0,0,1,5.48-.7,4.75,4.75,0,0,1,1.58,1.3,4.7,4.7,0,0,1,.92,1.94A3.79,3.79,0,0,1,37.18,16a19,19,0,0,1-1.93,3.43h0l-1.69,2.28h0A4.49,4.49,0,0,0,33,22.4Z"/><path class="cls-1" d="M10.93,37a2.17,2.17,0,0,0,.24-.07l.52-.18,1.41-.56c.47-.18.94-.37,1.4-.57l.81-.32,4.5-1.78a.3.3,0,0,1,.26,0l6.69,2.65,1.14.45a9.32,9.32,0,0,0,.88.33.8.8,0,0,0,.46,0,4.31,4.31,0,0,0,.76-.27c.5-.22,1-.44,1.52-.64l6.39-2.56c.22-.09.71-.27.71-.56V21.79c0-.49-.95-.65-1.1-.06V32.15a.36.36,0,0,1-.22.33L30,35.37a.35.35,0,0,1-.33,0,.34.34,0,0,1-.15-.29c0-1.62,0-3.25,0-4.87V27c0-.37,0-.75,0-1.12,0-.15,0-.35,0-.5a.58.58,0,0,0-1.07,0c0,.05,0,.1,0,.15s0,.24,0,.36c0,.37,0,.75,0,1.12,0,1.07,0,2.13,0,3.2s0,2.13,0,3.2c0,.56,0,1.13,0,1.69a.35.35,0,0,1-.16.29.33.33,0,0,1-.32,0l-7.25-2.89a.35.35,0,0,1-.22-.33V17.83A.35.35,0,0,1,21,17.5l4.4,1.73c.42,0,.55-.31.55-.72s-.79-.58-1-.68c-.88-.35-1.76-.73-2.64-1.09-.51-.2-1-.4-1.54-.58a5.22,5.22,0,0,0-.56-.18l-.26-.07a2.16,2.16,0,0,0-.41.13l-.76.29-1.3.53-2.55,1-2.55,1c-.46.18-.93.32-1.38.54-.16.08-.61.32-.61.54V36.51a.4.4,0,0,0,.14.27.66.66,0,0,0,.46.17ZM11.44,35V20.71a.33.33,0,0,1,.22-.32l7.25-2.89a.33.33,0,0,1,.32,0,.37.37,0,0,1,.16.3V32.15a.35.35,0,0,1-.22.33l-1.79.7-2.81,1.1L13,34.93c-.33.13-.68.27-1,.43a.37.37,0,0,1-.34,0A.37.37,0,0,1,11.44,35Z"/><path class="cls-1" d="M23.5,0a23.51,23.51,0,0,1,23,18.94H45.27a22.11,22.11,0,1,0,.07,9.11h0a.59.59,0,0,1,.57-.45c.29,0,.68.37.61.58A23.5,23.5,0,1,1,23.5,0Z"/><path class="cls-1" d="M46.51,22.54a.63.63,0,1,0-.62-.63A.63.63,0,0,0,46.51,22.54Z"/></g></g></svg>