<svg xmlns="http://www.w3.org/2000/svg" viewBox="0 0 47.14 46.99"><defs><style>.cls-1{fill:#fff;fill-rule:evenodd;}</style></defs><g id="Слой_2" data-name="Слой 2"><g id="Слой_1-2" data-name="Слой 1"><path class="cls-1" d="M36.18,13c2.89-1.35.47-5.78-2.37-4.16-.77.44-.83,1.06-1.25,1.75A19.49,19.49,0,0,0,28,9.45c-5-.38-9.92,1.83-8,8.08-4.37.26-12.61,2.41-9.7,7.84.46.85.33,1.14.33,2.29,0,5.24-.66,7.3,2,8.84,4.86,2.88,18.73,2.83,22.21-1,1.51-1.64-.14-7.89.84-9.92.64-1.33,1.18-2.26.34-4-1.82-3.69-6-1.85-5.75-4.88,1.27.45,3.75,1.49,5.25.78,1.68-.8,1.38-3.09.74-4.57Zm-5.67,8c-4.24-.36-12-2.1-9.77-7.56,1.54-3.82,9.64-3.83,12.56-1.18-1,.66-3.11,1.2-3.88,3.37s.3,3.89,1.09,5.37Zm0-5.29c.57-1.58,4.45-4,5.17-1.3,1,3.56-3.77,2.39-5.17,1.3Zm.27,3.72c4.61,1,6.6,5.21,1.63,7.33-3.78,1.61-8.68,1.91-13.14,1.39C8.8,26.9,8.13,21.37,15.61,19.24a24.17,24.17,0,0,1,3.07-.6c1.61-.23,2-.44,2.74.64-3.23.23-9,1.08-9.72,3.6-.47,1.62,1.78,2.82,3,3.31,4.37,1.73,13.09,1.67,17-.18,1-.49,3.63-1.91,2.41-3.56-.46-.62-1.35-.69-2-1.29a5.65,5.65,0,0,1-1.35-1.77Zm-18.22,4c.8-2.41,7.26-3.36,10.24-3.14L33.38,23c0,1.22-.8,1.52-1.7,2a5.86,5.86,0,0,0-3.51-2c-3.68-1-11.2-1.22-13.72,2.07a3.28,3.28,0,0,1-1.88-1.58Zm2.86,2.06c1.69-3.07,12.8-2.68,15.24-.2-1.37,1-5.47,1.21-7.46,1.21a30.44,30.44,0,0,1-7.78-1Zm-3.84,1.38c1.95.74,1.6,1.13,5.08,1.87a34,34,0,0,0,12.67,0c3.38-.7,3-1,5.06-1.89,0,1.83,0,3.67,0,5.5,0,2.55.07,2.63-1.91,3.6-4.42,2.16-14.38,2.15-18.84.06-1.85-.86-2.06-1-2.06-3.45,0-1.9-.06-3.82,0-5.71Zm21.17,1.91h0a.5.5,0,0,1,.5.5v4a.5.5,0,0,1-.5.5h0a.51.51,0,0,1-.5-.5v-4a.5.5,0,0,1,.5-.5Zm-2.08,1.38h0a.5.5,0,0,1,.49.5v4a.5.5,0,0,1-.49.5h0a.5.5,0,0,1-.49-.5v-4a.5.5,0,0,1,.49-.5Zm-2.61.62h0a.5.5,0,0,1,.5.5v4a.5.5,0,0,1-.5.5h0a.5.5,0,0,1-.5-.5v-4a.5.5,0,0,1,.5-.5Zm-3,.38h0a.51.51,0,0,1,.5.5v4a.51.51,0,0,1-.5.5h0a.5.5,0,0,1-.5-.5v-4a.5.5,0,0,1,.5-.5ZM35.38,9.39a1.52,1.52,0,0,1,1.24,1.75,1.64,1.64,0,0,1-3.15-.77A1.53,1.53,0,0,1,35.38,9.39Z"/><path class="cls-1" d="M23.5,0a23.51,23.51,0,0,1,23,18.94H45.27a22.11,22.11,0,1,0,.07,9.11h0a.59.59,0,0,1,.57-.45c.29,0,.68.37.61.58A23.5,23.5,0,1,1,23.5,0Z"/><path class="cls-1" d="M46.51,22.54a.63.63,0,1,0-.62-.63A.63.63,0,0,0,46.51,22.54Z"/></g></g></svg>