<svg xmlns="http://www.w3.org/2000/svg" viewBox="0 0 47.14 46.99"><defs><style>.cls-1{fill:#fff;fill-rule:evenodd;}</style></defs><g id="Слой_2" data-name="Слой 2"><g id="Слой_1-2" data-name="Слой 1"><path class="cls-1" d="M28.32,11.15,28,11.5a3.18,3.18,0,0,0-.23.4A3.3,3.3,0,0,0,27.5,13a2.67,2.67,0,0,0,1,2.09,2.59,2.59,0,1,0-.22-3.91Zm.4,1.88a1.37,1.37,0,0,1,1.42-1.42A1.39,1.39,0,0,1,31.55,13a1.36,1.36,0,0,1-1.41,1.38A1.34,1.34,0,0,1,28.72,13Z"/><path class="cls-1" d="M30,23.22l3.45-4.72h0a29.24,29.24,0,0,0,1.69-2.43,5.76,5.76,0,0,0-.11-6.39,8.63,8.63,0,0,0-.66-.81l-.78-.67a5.71,5.71,0,0,0-.91-.56,6.09,6.09,0,0,0-6,.5l-.81.67a6.06,6.06,0,0,0-1.72,4,5.5,5.5,0,0,0,.65,2.73,8.25,8.25,0,0,0,.6,1c.23.36.5.71.75,1.06l1.17,1.6,1.1,1.5.36.52a1.7,1.7,0,0,1,.19.35.33.33,0,0,1-.31.41H12.42a3.41,3.41,0,0,0-2.75,1.35,3.49,3.49,0,0,0-.73,2.31,3.54,3.54,0,0,0,2.28,3.2,4.27,4.27,0,0,0,1.63.23h16c1.33,0,2.67-.07,4,0a2.36,2.36,0,0,1,1.62.68,2.64,2.64,0,0,1,.48.62,2.24,2.24,0,0,1,.18,1.74A2.39,2.39,0,0,1,34,33.65a5.44,5.44,0,0,1-2.66.32H14.72a.33.33,0,0,1-.32-.25,2.61,2.61,0,0,0-1.06-1.45,2.8,2.8,0,0,0-4.22,3.28,2.72,2.72,0,0,0,2.46,1.82,2.59,2.59,0,0,0,1.95-.64,2.68,2.68,0,0,0,.87-1.29.33.33,0,0,1,.32-.25H27.66c1.1,0,2.2,0,3.3,0,.57,0,1.15,0,1.71-.06A5.4,5.4,0,0,0,33.82,35a3.72,3.72,0,0,0,1-.5A3.57,3.57,0,0,0,35.28,29a.12.12,0,0,0-.05,0,3.38,3.38,0,0,0-1.49-.85,6.79,6.79,0,0,0-1.28-.16c-.59,0-1.18-.05-1.77-.05-1.15,0-2.3,0-3.45,0l-8,0H14.36l-1.64,0h-.49a1.23,1.23,0,0,1-.27,0,2.3,2.3,0,0,1-1.81-2.11,2.27,2.27,0,0,1,1.47-2.38,4,4,0,0,1,1-.16c.48,0,1,0,1.46,0H30ZM30,20.74a4.52,4.52,0,0,1-.72-.89L28.62,19c-.41-.55-.81-1.12-1.22-1.67-.81-1.08-2-2.68-2-4.07a4.63,4.63,0,0,1,.9-3.09,4.82,4.82,0,0,1,2.8-1.82,4.31,4.31,0,0,1,2,0A5.14,5.14,0,0,1,32.76,9l0,0,.69.57,0,0,0,0,.12.13a4.64,4.64,0,0,1,.72,1,4.48,4.48,0,0,1,.5,2.35,4.77,4.77,0,0,1-.76,2.31c-.37.62-.8,1.18-1.21,1.77-.2.28-.42.55-.62.83h0L30.4,20.66a.33.33,0,0,1-.44.08ZM11.7,33a1.57,1.57,0,0,1,1.63,1.34,1.6,1.6,0,0,1-1,1.77A1.61,1.61,0,1,1,11.7,33Z"/><path class="cls-1" d="M45.9,19.51a.63.63,0,1,0,0-1.25.63.63,0,1,0,0,1.25Z"/><path class="cls-1" d="M23.5,0a23.51,23.51,0,0,1,23,18.94H45.27a22.11,22.11,0,1,0,.07,9.11h0a.59.59,0,0,1,.57-.45c.29,0,.68.37.61.58A23.5,23.5,0,1,1,23.5,0Z"/><path class="cls-1" d="M46.51,22.54a.63.63,0,1,0-.62-.63A.63.63,0,0,0,46.51,22.54Z"/></g></g></svg>